# xmcd
#
# Track frame offsets:
#	150
#	20784
#	36768
#	55291
#	72670
#	93152
#	108567
#	133145
#	150391
#	166324
#	180716
#	199068
#
# Disc length: 2930 seconds
#
# Revision: 0
# Processed by: cddbd v1.5.2PL0 Copyright (c) Steve Scherf et al.
# Submitted via: EasyCDDAExtractor 16.0.1.1
#
DISCID=a70b700c
DTITLE=Mike Blakely and John Arthur Martinez - Blakely_Martinez
DYEAR=2007
DGENRE=Country
TTITLE0=Midnight Blue
TTITLE1=Two Hearts Are Better Than One
TTITLE2=Change Your Mind
TTITLE3=I Could Live Without You
TTITLE4=Just A Broken Heart Away
TTITLE5=I Have A Right To Smile
TTITLE6=Sweet on You
TTITLE7=You Don't Have To Go Home
TTITLE8=She's Too Fine
TTITLE9=Rosalinda  Where Are You Tonight
TTITLE10=Sister Moon [Demo]
TTITLE11=Making Good Time [NASA Version]
EXTD=
EXTT0=
EXTT1=
EXTT2=
EXTT3=
EXTT4=
EXTT5=
EXTT6=
EXTT7=
EXTT8=
EXTT9=
EXTT10=
EXTT11=
PLAYORDER=
